<svg xmlns="http://www.w3.org/2000/svg" width="820" height="228" viewBox="0 0 820 228" role="img">
<defs>
  <filter id="shadow" x="-10%" y="-10%" width="120%" height="120%">
    <feDropShadow dx="0" dy="8" stdDeviation="10" flood-color="#000000" flood-opacity="0.16"/>
  </filter>
  <style>
    .title { font: 700 20px -apple-system,BlinkMacSystemFont,"Segoe UI",sans-serif; fill: #e5e7eb; }
    .subtitle { font: 500 12px -apple-system,BlinkMacSystemFont,"Segoe UI",sans-serif; fill: #94a3b8; }
    .label { font: 600 11px -apple-system,BlinkMacSystemFont,"Segoe UI",sans-serif; fill: #94a3b8; text-transform: uppercase; letter-spacing: .06em; }
    .value { font: 700 17px ui-monospace,SFMono-Regular,Menlo,monospace; fill: #e5e7eb; }
    .small { font: 500 11px -apple-system,BlinkMacSystemFont,"Segoe UI",sans-serif; fill: #94a3b8; }
    .tiny { font: 500 10px -apple-system,BlinkMacSystemFont,"Segoe UI",sans-serif; fill: #94a3b8; }
    .mono { font: 650 12px ui-monospace,SFMono-Regular,Menlo,monospace; fill: #e5e7eb; }
  </style>
</defs><rect x="1" y="1" width="818" height="226" rx="12" fill="#111827" stroke="#263247" filter="url(#shadow)"/><text x="28" y="44" class="title">Contribution activity</text><text x="28" y="68" class="subtitle">Last 12 months · current streak 24d · longest streak 107d</text><text x="75" y="90" class="tiny">Sep</text><text x="127" y="90" class="tiny">Oct</text><text x="179" y="90" class="tiny">Nov</text><text x="244" y="90" class="tiny">Dec</text><text x="296" y="90" class="tiny">Jan</text><text x="348" y="90" class="tiny">Feb</text><text x="400" y="90" class="tiny">Mar</text><text x="465" y="90" class="tiny">Apr</text><text x="517" y="90" class="tiny">May</text><text x="582" y="90" class="tiny">Jun</text><text x="634" y="90" class="tiny">Jul</text><text x="686" y="90" class="tiny">Aug</text><text x="54" y="122" text-anchor="end" class="tiny">Mon</text><text x="54" y="148" text-anchor="end" class="tiny">Wed</text><text x="54" y="174" text-anchor="end" class="tiny">Fri</text><rect x="62" y="100" width="10" height="10" rx="2" fill="#1f2937"><title>2025-08-31: 0</title></rect><rect x="62" y="113" width="10" height="10" rx="2" fill="#1f2937"><title>2025-09-01: 0</title></rect><rect x="62" y="126" width="10" height="10" rx="2" fill="#1f2937"><title>2025-09-02: 0</title></rect><rect x="62" y="139" width="10" height="10" rx="2" fill="#1f2937"><title>2025-09-03: 0</title></rect><rect x="62" y="152" width="10" height="10" rx="2" fill="#a78bfa"><title>2025-09-04: 25</title></rect><rect x="62" y="165" width="10" height="10" rx="2" fill="#a78bfa"><title>2025-09-05: 35</title></rect><rect x="62" y="178" width="10" height="10" rx="2" fill="#1f2937"><title>2025-09-06: 0</title></rect><rect x="75" y="100" width="10" height="10" rx="2" fill="#1f2937"><title>2025-09-07: 0</title></rect><rect x="75" y="113" width="10" height="10" rx="2" fill="#8468ee"><title>2025-09-08: 5</title></rect><rect x="75" y="126" width="10" height="10" rx="2" fill="#a78bfa"><title>2025-09-09: 30</title></rect><rect x="75" y="139" width="10" height="10" rx="2" fill="#a78bfa"><title>2025-09-10: 20</title></rect><rect x="75" y="152" width="10" height="10" rx="2" fill="#1f2937"><title>2025-09-11: 0</title></rect><rect x="75" y="165" width="10" height="10" rx="2" fill="#1f2937"><title>2025-09-12: 0</title></rect><rect x="75" y="178" width="10" height="10" rx="2" fill="#1f2937"><title>2025-09-13: 0</title></rect><rect x="88" y="100" width="10" height="10" rx="2" fill="#a78bfa"><title>2025-09-14: 24</title></rect><rect x="88" y="113" width="10" height="10" rx="2" fill="#1f2937"><title>2025-09-15: 0</title></rect><rect x="88" y="126" width="10" height="10" rx="2" fill="#a78bfa"><title>2025-09-16: 12</title></rect><rect x="88" y="139" width="10" height="10" rx="2" fill="#a78bfa"><title>2025-09-17: 126</title></rect><rect x="88" y="152" width="10" height="10" rx="2" fill="#8468ee"><title>2025-09-18: 5</title></rect><rect x="88" y="165" width="10" height="10" rx="2" fill="#1f2937"><title>2025-09-19: 0</title></rect><rect x="88" y="178" width="10" height="10" rx="2" fill="#1f2937"><title>2025-09-20: 0</title></rect><rect x="101" y="100" width="10" height="10" rx="2" fill="#a78bfa"><title>2025-09-21: 64</title></rect><rect x="101" y="113" width="10" height="10" rx="2" fill="#a78bfa"><title>2025-09-22: 12</title></rect><rect x="101" y="126" width="10" height="10" rx="2" fill="#3b3170"><title>2025-09-23: 1</title></rect><rect x="101" y="139" width="10" height="10" rx="2" fill="#3b3170"><title>2025-09-24: 1</title></rect><rect x="101" y="152" width="10" height="10" rx="2" fill="#3b3170"><title>2025-09-25: 1</title></rect><rect x="101" y="165" width="10" height="10" rx="2" fill="#3b3170"><title>2025-09-26: 1</title></rect><rect x="101" y="178" width="10" height="10" rx="2" fill="#3b3170"><title>2025-09-27: 1</title></rect><rect x="114" y="100" width="10" height="10" rx="2" fill="#3b3170"><title>2025-09-28: 1</title></rect><rect x="114" y="113" width="10" height="10" rx="2" fill="#3b3170"><title>2025-09-29: 1</title></rect><rect x="114" y="126" width="10" height="10" rx="2" fill="#a78bfa"><title>2025-09-30: 32</title></rect><rect x="114" y="139" width="10" height="10" rx="2" fill="#8468ee"><title>2025-10-01: 7</title></rect><rect x="114" y="152" width="10" height="10" rx="2" fill="#3b3170"><title>2025-10-02: 1</title></rect><rect x="114" y="165" width="10" height="10" rx="2" fill="#a78bfa"><title>2025-10-03: 62</title></rect><rect x="114" y="178" width="10" height="10" rx="2" fill="#a78bfa"><title>2025-10-04: 143</title></rect><rect x="127" y="100" width="10" height="10" rx="2" fill="#a78bfa"><title>2025-10-05: 81</title></rect><rect x="127" y="113" width="10" height="10" rx="2" fill="#a78bfa"><title>2025-10-06: 11</title></rect><rect x="127" y="126" width="10" height="10" rx="2" fill="#a78bfa"><title>2025-10-07: 15</title></rect><rect x="127" y="139" width="10" height="10" rx="2" fill="#3b3170"><title>2025-10-08: 1</title></rect><rect x="127" y="152" width="10" height="10" rx="2" fill="#3b3170"><title>2025-10-09: 1</title></rect><rect x="127" y="165" width="10" height="10" rx="2" fill="#3b3170"><title>2025-10-10: 1</title></rect><rect x="127" y="178" width="10" height="10" rx="2" fill="#3b3170"><title>2025-10-11: 1</title></rect><rect x="140" y="100" width="10" height="10" rx="2" fill="#3b3170"><title>2025-10-12: 1</title></rect><rect x="140" y="113" width="10" height="10" rx="2" fill="#3b3170"><title>2025-10-13: 1</title></rect><rect x="140" y="126" width="10" height="10" rx="2" fill="#3b3170"><title>2025-10-14: 1</title></rect><rect x="140" y="139" width="10" height="10" rx="2" fill="#3b3170"><title>2025-10-15: 1</title></rect><rect x="140" y="152" width="10" height="10" rx="2" fill="#3b3170"><title>2025-10-16: 1</title></rect><rect x="140" y="165" width="10" height="10" rx="2" fill="#3b3170"><title>2025-10-17: 1</title></rect><rect x="140" y="178" width="10" height="10" rx="2" fill="#3b3170"><title>2025-10-18: 1</title></rect><rect x="153" y="100" width="10" height="10" rx="2" fill="#3b3170"><title>2025-10-19: 1</title></rect><rect x="153" y="113" width="10" height="10" rx="2" fill="#3b3170"><title>2025-10-20: 1</title></rect><rect x="153" y="126" width="10" height="10" rx="2" fill="#3b3170"><title>2025-10-21: 1</title></rect><rect x="153" y="139" width="10" height="10" rx="2" fill="#3b3170"><title>2025-10-22: 1</title></rect><rect x="153" y="152" width="10" height="10" rx="2" fill="#3b3170"><title>2025-10-23: 1</title></rect><rect x="153" y="165" width="10" height="10" rx="2" fill="#3b3170"><title>2025-10-24: 1</title></rect><rect x="153" y="178" width="10" height="10" rx="2" fill="#3b3170"><title>2025-10-25: 1</title></rect><rect x="166" y="100" width="10" height="10" rx="2" fill="#3b3170"><title>2025-10-26: 1</title></rect><rect x="166" y="113" width="10" height="10" rx="2" fill="#3b3170"><title>2025-10-27: 1</title></rect><rect x="166" y="126" width="10" height="10" rx="2" fill="#3b3170"><title>2025-10-28: 1</title></rect><rect x="166" y="139" width="10" height="10" rx="2" fill="#3b3170"><title>2025-10-29: 1</title></rect><rect x="166" y="152" width="10" height="10" rx="2" fill="#3b3170"><title>2025-10-30: 1</title></rect><rect x="166" y="165" width="10" height="10" rx="2" fill="#3b3170"><title>2025-10-31: 1</title></rect><rect x="166" y="178" width="10" height="10" rx="2" fill="#3b3170"><title>2025-11-01: 1</title></rect><rect x="179" y="100" width="10" height="10" rx="2" fill="#3b3170"><title>2025-11-02: 1</title></rect><rect x="179" y="113" width="10" height="10" rx="2" fill="#3b3170"><title>2025-11-03: 1</title></rect><rect x="179" y="126" width="10" height="10" rx="2" fill="#3b3170"><title>2025-11-04: 1</title></rect><rect x="179" y="139" width="10" height="10" rx="2" fill="#3b3170"><title>2025-11-05: 1</title></rect><rect x="179" y="152" width="10" height="10" rx="2" fill="#3b3170"><title>2025-11-06: 1</title></rect><rect x="179" y="165" width="10" height="10" rx="2" fill="#3b3170"><title>2025-11-07: 1</title></rect><rect x="179" y="178" width="10" height="10" rx="2" fill="#3b3170"><title>2025-11-08: 1</title></rect><rect x="192" y="100" width="10" height="10" rx="2" fill="#3b3170"><title>2025-11-09: 1</title></rect><rect x="192" y="113" width="10" height="10" rx="2" fill="#3b3170"><title>2025-11-10: 1</title></rect><rect x="192" y="126" width="10" height="10" rx="2" fill="#3b3170"><title>2025-11-11: 1</title></rect><rect x="192" y="139" width="10" height="10" rx="2" fill="#3b3170"><title>2025-11-12: 1</title></rect><rect x="192" y="152" width="10" height="10" rx="2" fill="#a78bfa"><title>2025-11-13: 12</title></rect><rect x="192" y="165" width="10" height="10" rx="2" fill="#8468ee"><title>2025-11-14: 8</title></rect><rect x="192" y="178" width="10" height="10" rx="2" fill="#8468ee"><title>2025-11-15: 7</title></rect><rect x="205" y="100" width="10" height="10" rx="2" fill="#a78bfa"><title>2025-11-16: 13</title></rect><rect x="205" y="113" width="10" height="10" rx="2" fill="#3b3170"><title>2025-11-17: 1</title></rect><rect x="205" y="126" width="10" height="10" rx="2" fill="#3b3170"><title>2025-11-18: 1</title></rect><rect x="205" y="139" width="10" height="10" rx="2" fill="#3b3170"><title>2025-11-19: 1</title></rect><rect x="205" y="152" width="10" height="10" rx="2" fill="#a78bfa"><title>2025-11-20: 16</title></rect><rect x="205" y="165" width="10" height="10" rx="2" fill="#8468ee"><title>2025-11-21: 5</title></rect><rect x="205" y="178" width="10" height="10" rx="2" fill="#3b3170"><title>2025-11-22: 1</title></rect><rect x="218" y="100" width="10" height="10" rx="2" fill="#3b3170"><title>2025-11-23: 1</title></rect><rect x="218" y="113" width="10" height="10" rx="2" fill="#a78bfa"><title>2025-11-24: 71</title></rect><rect x="218" y="126" width="10" height="10" rx="2" fill="#a78bfa"><title>2025-11-25: 18</title></rect><rect x="218" y="139" width="10" height="10" rx="2" fill="#8468ee"><title>2025-11-26: 8</title></rect><rect x="218" y="152" width="10" height="10" rx="2" fill="#a78bfa"><title>2025-11-27: 12</title></rect><rect x="218" y="165" width="10" height="10" rx="2" fill="#3b3170"><title>2025-11-28: 1</title></rect><rect x="218" y="178" width="10" height="10" rx="2" fill="#3b3170"><title>2025-11-29: 1</title></rect><rect x="231" y="100" width="10" height="10" rx="2" fill="#3b3170"><title>2025-11-30: 1</title></rect><rect x="231" y="113" width="10" height="10" rx="2" fill="#8468ee"><title>2025-12-01: 9</title></rect><rect x="231" y="126" width="10" height="10" rx="2" fill="#a78bfa"><title>2025-12-02: 41</title></rect><rect x="231" y="139" width="10" height="10" rx="2" fill="#a78bfa"><title>2025-12-03: 38</title></rect><rect x="231" y="152" width="10" height="10" rx="2" fill="#a78bfa"><title>2025-12-04: 33</title></rect><rect x="231" y="165" width="10" height="10" rx="2" fill="#a78bfa"><title>2025-12-05: 28</title></rect><rect x="231" y="178" width="10" height="10" rx="2" fill="#a78bfa"><title>2025-12-06: 33</title></rect><rect x="244" y="100" width="10" height="10" rx="2" fill="#a78bfa"><title>2025-12-07: 37</title></rect><rect x="244" y="113" width="10" height="10" rx="2" fill="#a78bfa"><title>2025-12-08: 15</title></rect><rect x="244" y="126" width="10" height="10" rx="2" fill="#8468ee"><title>2025-12-09: 6</title></rect><rect x="244" y="139" width="10" height="10" rx="2" fill="#3b3170"><title>2025-12-10: 1</title></rect><rect x="244" y="152" width="10" height="10" rx="2" fill="#8468ee"><title>2025-12-11: 6</title></rect><rect x="244" y="165" width="10" height="10" rx="2" fill="#3b3170"><title>2025-12-12: 1</title></rect><rect x="244" y="178" width="10" height="10" rx="2" fill="#3b3170"><title>2025-12-13: 1</title></rect><rect x="257" y="100" width="10" height="10" rx="2" fill="#3b3170"><title>2025-12-14: 1</title></rect><rect x="257" y="113" width="10" height="10" rx="2" fill="#5b4ac4"><title>2025-12-15: 2</title></rect><rect x="257" y="126" width="10" height="10" rx="2" fill="#5b4ac4"><title>2025-12-16: 2</title></rect><rect x="257" y="139" width="10" height="10" rx="2" fill="#5b4ac4"><title>2025-12-17: 2</title></rect><rect x="257" y="152" width="10" height="10" rx="2" fill="#5b4ac4"><title>2025-12-18: 3</title></rect><rect x="257" y="165" width="10" height="10" rx="2" fill="#3b3170"><title>2025-12-19: 1</title></rect><rect x="257" y="178" width="10" height="10" rx="2" fill="#3b3170"><title>2025-12-20: 1</title></rect><rect x="270" y="100" width="10" height="10" rx="2" fill="#3b3170"><title>2025-12-21: 1</title></rect><rect x="270" y="113" width="10" height="10" rx="2" fill="#3b3170"><title>2025-12-22: 1</title></rect><rect x="270" y="126" width="10" height="10" rx="2" fill="#8468ee"><title>2025-12-23: 8</title></rect><rect x="270" y="139" width="10" height="10" rx="2" fill="#a78bfa"><title>2025-12-24: 26</title></rect><rect x="270" y="152" width="10" height="10" rx="2" fill="#8468ee"><title>2025-12-25: 9</title></rect><rect x="270" y="165" width="10" height="10" rx="2" fill="#a78bfa"><title>2025-12-26: 13</title></rect><rect x="270" y="178" width="10" height="10" rx="2" fill="#8468ee"><title>2025-12-27: 9</title></rect><rect x="283" y="100" width="10" height="10" rx="2" fill="#3b3170"><title>2025-12-28: 1</title></rect><rect x="283" y="113" width="10" height="10" rx="2" fill="#5b4ac4"><title>2025-12-29: 4</title></rect><rect x="283" y="126" width="10" height="10" rx="2" fill="#3b3170"><title>2025-12-30: 1</title></rect><rect x="283" y="139" width="10" height="10" rx="2" fill="#3b3170"><title>2025-12-31: 1</title></rect><rect x="283" y="152" width="10" height="10" rx="2" fill="#3b3170"><title>2026-01-01: 1</title></rect><rect x="283" y="165" width="10" height="10" rx="2" fill="#8468ee"><title>2026-01-02: 5</title></rect><rect x="283" y="178" width="10" height="10" rx="2" fill="#a78bfa"><title>2026-01-03: 24</title></rect><rect x="296" y="100" width="10" height="10" rx="2" fill="#a78bfa"><title>2026-01-04: 16</title></rect><rect x="296" y="113" width="10" height="10" rx="2" fill="#a78bfa"><title>2026-01-05: 10</title></rect><rect x="296" y="126" width="10" height="10" rx="2" fill="#1f2937"><title>2026-01-06: 0</title></rect><rect x="296" y="139" width="10" height="10" rx="2" fill="#8468ee"><title>2026-01-07: 8</title></rect><rect x="296" y="152" width="10" height="10" rx="2" fill="#1f2937"><title>2026-01-08: 0</title></rect><rect x="296" y="165" width="10" height="10" rx="2" fill="#5b4ac4"><title>2026-01-09: 4</title></rect><rect x="296" y="178" width="10" height="10" rx="2" fill="#a78bfa"><title>2026-01-10: 14</title></rect><rect x="309" y="100" width="10" height="10" rx="2" fill="#a78bfa"><title>2026-01-11: 32</title></rect><rect x="309" y="113" width="10" height="10" rx="2" fill="#a78bfa"><title>2026-01-12: 12</title></rect><rect x="309" y="126" width="10" height="10" rx="2" fill="#1f2937"><title>2026-01-13: 0</title></rect><rect x="309" y="139" width="10" height="10" rx="2" fill="#a78bfa"><title>2026-01-14: 47</title></rect><rect x="309" y="152" width="10" height="10" rx="2" fill="#8468ee"><title>2026-01-15: 9</title></rect><rect x="309" y="165" width="10" height="10" rx="2" fill="#5b4ac4"><title>2026-01-16: 2</title></rect><rect x="309" y="178" width="10" height="10" rx="2" fill="#a78bfa"><title>2026-01-17: 18</title></rect><rect x="322" y="100" width="10" height="10" rx="2" fill="#8468ee"><title>2026-01-18: 5</title></rect><rect x="322" y="113" width="10" height="10" rx="2" fill="#1f2937"><title>2026-01-19: 0</title></rect><rect x="322" y="126" width="10" height="10" rx="2" fill="#1f2937"><title>2026-01-20: 0</title></rect><rect x="322" y="139" width="10" height="10" rx="2" fill="#1f2937"><title>2026-01-21: 0</title></rect><rect x="322" y="152" width="10" height="10" rx="2" fill="#3b3170"><title>2026-01-22: 1</title></rect><rect x="322" y="165" width="10" height="10" rx="2" fill="#a78bfa"><title>2026-01-23: 22</title></rect><rect x="322" y="178" width="10" height="10" rx="2" fill="#a78bfa"><title>2026-01-24: 16</title></rect><rect x="335" y="100" width="10" height="10" rx="2" fill="#3b3170"><title>2026-01-25: 1</title></rect><rect x="335" y="113" width="10" height="10" rx="2" fill="#5b4ac4"><title>2026-01-26: 2</title></rect><rect x="335" y="126" width="10" height="10" rx="2" fill="#1f2937"><title>2026-01-27: 0</title></rect><rect x="335" y="139" width="10" height="10" rx="2" fill="#a78bfa"><title>2026-01-28: 16</title></rect><rect x="335" y="152" width="10" height="10" rx="2" fill="#a78bfa"><title>2026-01-29: 16</title></rect><rect x="335" y="165" width="10" height="10" rx="2" fill="#a78bfa"><title>2026-01-30: 41</title></rect><rect x="335" y="178" width="10" height="10" rx="2" fill="#1f2937"><title>2026-01-31: 0</title></rect><rect x="348" y="100" width="10" height="10" rx="2" fill="#5b4ac4"><title>2026-02-01: 3</title></rect><rect x="348" y="113" width="10" height="10" rx="2" fill="#3b3170"><title>2026-02-02: 1</title></rect><rect x="348" y="126" width="10" height="10" rx="2" fill="#8468ee"><title>2026-02-03: 7</title></rect><rect x="348" y="139" width="10" height="10" rx="2" fill="#a78bfa"><title>2026-02-04: 28</title></rect><rect x="348" y="152" width="10" height="10" rx="2" fill="#a78bfa"><title>2026-02-05: 24</title></rect><rect x="348" y="165" width="10" height="10" rx="2" fill="#a78bfa"><title>2026-02-06: 68</title></rect><rect x="348" y="178" width="10" height="10" rx="2" fill="#a78bfa"><title>2026-02-07: 34</title></rect><rect x="361" y="100" width="10" height="10" rx="2" fill="#a78bfa"><title>2026-02-08: 103</title></rect><rect x="361" y="113" width="10" height="10" rx="2" fill="#a78bfa"><title>2026-02-09: 71</title></rect><rect x="361" y="126" width="10" height="10" rx="2" fill="#a78bfa"><title>2026-02-10: 46</title></rect><rect x="361" y="139" width="10" height="10" rx="2" fill="#a78bfa"><title>2026-02-11: 92</title></rect><rect x="361" y="152" width="10" height="10" rx="2" fill="#a78bfa"><title>2026-02-12: 186</title></rect><rect x="361" y="165" width="10" height="10" rx="2" fill="#a78bfa"><title>2026-02-13: 328</title></rect><rect x="361" y="178" width="10" height="10" rx="2" fill="#a78bfa"><title>2026-02-14: 332</title></rect><rect x="374" y="100" width="10" height="10" rx="2" fill="#a78bfa"><title>2026-02-15: 145</title></rect><rect x="374" y="113" width="10" height="10" rx="2" fill="#a78bfa"><title>2026-02-16: 83</title></rect><rect x="374" y="126" width="10" height="10" rx="2" fill="#a78bfa"><title>2026-02-17: 232</title></rect><rect x="374" y="139" width="10" height="10" rx="2" fill="#a78bfa"><title>2026-02-18: 64</title></rect><rect x="374" y="152" width="10" height="10" rx="2" fill="#a78bfa"><title>2026-02-19: 88</title></rect><rect x="374" y="165" width="10" height="10" rx="2" fill="#a78bfa"><title>2026-02-20: 208</title></rect><rect x="374" y="178" width="10" height="10" rx="2" fill="#a78bfa"><title>2026-02-21: 125</title></rect><rect x="387" y="100" width="10" height="10" rx="2" fill="#a78bfa"><title>2026-02-22: 128</title></rect><rect x="387" y="113" width="10" height="10" rx="2" fill="#a78bfa"><title>2026-02-23: 140</title></rect><rect x="387" y="126" width="10" height="10" rx="2" fill="#a78bfa"><title>2026-02-24: 351</title></rect><rect x="387" y="139" width="10" height="10" rx="2" fill="#a78bfa"><title>2026-02-25: 70</title></rect><rect x="387" y="152" width="10" height="10" rx="2" fill="#a78bfa"><title>2026-02-26: 83</title></rect><rect x="387" y="165" width="10" height="10" rx="2" fill="#a78bfa"><title>2026-02-27: 130</title></rect><rect x="387" y="178" width="10" height="10" rx="2" fill="#a78bfa"><title>2026-02-28: 133</title></rect><rect x="400" y="100" width="10" height="10" rx="2" fill="#a78bfa"><title>2026-03-01: 183</title></rect><rect x="400" y="113" width="10" height="10" rx="2" fill="#a78bfa"><title>2026-03-02: 175</title></rect><rect x="400" y="126" width="10" height="10" rx="2" fill="#a78bfa"><title>2026-03-03: 160</title></rect><rect x="400" y="139" width="10" height="10" rx="2" fill="#a78bfa"><title>2026-03-04: 268</title></rect><rect x="400" y="152" width="10" height="10" rx="2" fill="#a78bfa"><title>2026-03-05: 100</title></rect><rect x="400" y="165" width="10" height="10" rx="2" fill="#a78bfa"><title>2026-03-06: 87</title></rect><rect x="400" y="178" width="10" height="10" rx="2" fill="#a78bfa"><title>2026-03-07: 84</title></rect><rect x="413" y="100" width="10" height="10" rx="2" fill="#8468ee"><title>2026-03-08: 8</title></rect><rect x="413" y="113" width="10" height="10" rx="2" fill="#a78bfa"><title>2026-03-09: 36</title></rect><rect x="413" y="126" width="10" height="10" rx="2" fill="#a78bfa"><title>2026-03-10: 19</title></rect><rect x="413" y="139" width="10" height="10" rx="2" fill="#a78bfa"><title>2026-03-11: 20</title></rect><rect x="413" y="152" width="10" height="10" rx="2" fill="#a78bfa"><title>2026-03-12: 50</title></rect><rect x="413" y="165" width="10" height="10" rx="2" fill="#a78bfa"><title>2026-03-13: 12</title></rect><rect x="413" y="178" width="10" height="10" rx="2" fill="#a78bfa"><title>2026-03-14: 24</title></rect><rect x="426" y="100" width="10" height="10" rx="2" fill="#a78bfa"><title>2026-03-15: 31</title></rect><rect x="426" y="113" width="10" height="10" rx="2" fill="#a78bfa"><title>2026-03-16: 49</title></rect><rect x="426" y="126" width="10" height="10" rx="2" fill="#a78bfa"><title>2026-03-17: 45</title></rect><rect x="426" y="139" width="10" height="10" rx="2" fill="#a78bfa"><title>2026-03-18: 16</title></rect><rect x="426" y="152" width="10" height="10" rx="2" fill="#a78bfa"><title>2026-03-19: 40</title></rect><rect x="426" y="165" width="10" height="10" rx="2" fill="#8468ee"><title>2026-03-20: 6</title></rect><rect x="426" y="178" width="10" height="10" rx="2" fill="#8468ee"><title>2026-03-21: 8</title></rect><rect x="439" y="100" width="10" height="10" rx="2" fill="#5b4ac4"><title>2026-03-22: 2</title></rect><rect x="439" y="113" width="10" height="10" rx="2" fill="#1f2937"><title>2026-03-23: 0</title></rect><rect x="439" y="126" width="10" height="10" rx="2" fill="#1f2937"><title>2026-03-24: 0</title></rect><rect x="439" y="139" width="10" height="10" rx="2" fill="#1f2937"><title>2026-03-25: 0</title></rect><rect x="439" y="152" width="10" height="10" rx="2" fill="#1f2937"><title>2026-03-26: 0</title></rect><rect x="439" y="165" width="10" height="10" rx="2" fill="#1f2937"><title>2026-03-27: 0</title></rect><rect x="439" y="178" width="10" height="10" rx="2" fill="#1f2937"><title>2026-03-28: 0</title></rect><rect x="452" y="100" width="10" height="10" rx="2" fill="#5b4ac4"><title>2026-03-29: 2</title></rect><rect x="452" y="113" width="10" height="10" rx="2" fill="#1f2937"><title>2026-03-30: 0</title></rect><rect x="452" y="126" width="10" height="10" rx="2" fill="#8468ee"><title>2026-03-31: 9</title></rect><rect x="452" y="139" width="10" height="10" rx="2" fill="#a78bfa"><title>2026-04-01: 117</title></rect><rect x="452" y="152" width="10" height="10" rx="2" fill="#a78bfa"><title>2026-04-02: 111</title></rect><rect x="452" y="165" width="10" height="10" rx="2" fill="#a78bfa"><title>2026-04-03: 41</title></rect><rect x="452" y="178" width="10" height="10" rx="2" fill="#1f2937"><title>2026-04-04: 0</title></rect><rect x="465" y="100" width="10" height="10" rx="2" fill="#1f2937"><title>2026-04-05: 0</title></rect><rect x="465" y="113" width="10" height="10" rx="2" fill="#1f2937"><title>2026-04-06: 0</title></rect><rect x="465" y="126" width="10" height="10" rx="2" fill="#a78bfa"><title>2026-04-07: 69</title></rect><rect x="465" y="139" width="10" height="10" rx="2" fill="#a78bfa"><title>2026-04-08: 11</title></rect><rect x="465" y="152" width="10" height="10" rx="2" fill="#a78bfa"><title>2026-04-09: 15</title></rect><rect x="465" y="165" width="10" height="10" rx="2" fill="#8468ee"><title>2026-04-10: 5</title></rect><rect x="465" y="178" width="10" height="10" rx="2" fill="#5b4ac4"><title>2026-04-11: 2</title></rect><rect x="478" y="100" width="10" height="10" rx="2" fill="#a78bfa"><title>2026-04-12: 13</title></rect><rect x="478" y="113" width="10" height="10" rx="2" fill="#a78bfa"><title>2026-04-13: 114</title></rect><rect x="478" y="126" width="10" height="10" rx="2" fill="#a78bfa"><title>2026-04-14: 64</title></rect><rect x="478" y="139" width="10" height="10" rx="2" fill="#8468ee"><title>2026-04-15: 8</title></rect><rect x="478" y="152" width="10" height="10" rx="2" fill="#1f2937"><title>2026-04-16: 0</title></rect><rect x="478" y="165" width="10" height="10" rx="2" fill="#a78bfa"><title>2026-04-17: 17</title></rect><rect x="478" y="178" width="10" height="10" rx="2" fill="#a78bfa"><title>2026-04-18: 31</title></rect><rect x="491" y="100" width="10" height="10" rx="2" fill="#a78bfa"><title>2026-04-19: 45</title></rect><rect x="491" y="113" width="10" height="10" rx="2" fill="#a78bfa"><title>2026-04-20: 13</title></rect><rect x="491" y="126" width="10" height="10" rx="2" fill="#5b4ac4"><title>2026-04-21: 4</title></rect><rect x="491" y="139" width="10" height="10" rx="2" fill="#a78bfa"><title>2026-04-22: 19</title></rect><rect x="491" y="152" width="10" height="10" rx="2" fill="#a78bfa"><title>2026-04-23: 34</title></rect><rect x="491" y="165" width="10" height="10" rx="2" fill="#5b4ac4"><title>2026-04-24: 2</title></rect><rect x="491" y="178" width="10" height="10" rx="2" fill="#1f2937"><title>2026-04-25: 0</title></rect><rect x="504" y="100" width="10" height="10" rx="2" fill="#1f2937"><title>2026-04-26: 0</title></rect><rect x="504" y="113" width="10" height="10" rx="2" fill="#a78bfa"><title>2026-04-27: 11</title></rect><rect x="504" y="126" width="10" height="10" rx="2" fill="#3b3170"><title>2026-04-28: 1</title></rect><rect x="504" y="139" width="10" height="10" rx="2" fill="#a78bfa"><title>2026-04-29: 18</title></rect><rect x="504" y="152" width="10" height="10" rx="2" fill="#a78bfa"><title>2026-04-30: 49</title></rect><rect x="504" y="165" width="10" height="10" rx="2" fill="#3b3170"><title>2026-05-01: 1</title></rect><rect x="504" y="178" width="10" height="10" rx="2" fill="#3b3170"><title>2026-05-02: 1</title></rect><rect x="517" y="100" width="10" height="10" rx="2" fill="#3b3170"><title>2026-05-03: 1</title></rect><rect x="517" y="113" width="10" height="10" rx="2" fill="#3b3170"><title>2026-05-04: 1</title></rect><rect x="517" y="126" width="10" height="10" rx="2" fill="#1f2937"><title>2026-05-05: 0</title></rect><rect x="517" y="139" width="10" height="10" rx="2" fill="#1f2937"><title>2026-05-06: 0</title></rect><rect x="517" y="152" width="10" height="10" rx="2" fill="#8468ee"><title>2026-05-07: 9</title></rect><rect x="517" y="165" width="10" height="10" rx="2" fill="#1f2937"><title>2026-05-08: 0</title></rect><rect x="517" y="178" width="10" height="10" rx="2" fill="#3b3170"><title>2026-05-09: 1</title></rect><rect x="530" y="100" width="10" height="10" rx="2" fill="#1f2937"><title>2026-05-10: 0</title></rect><rect x="530" y="113" width="10" height="10" rx="2" fill="#a78bfa"><title>2026-05-11: 16</title></rect><rect x="530" y="126" width="10" height="10" rx="2" fill="#8468ee"><title>2026-05-12: 8</title></rect><rect x="530" y="139" width="10" height="10" rx="2" fill="#1f2937"><title>2026-05-13: 0</title></rect><rect x="530" y="152" width="10" height="10" rx="2" fill="#1f2937"><title>2026-05-14: 0</title></rect><rect x="530" y="165" width="10" height="10" rx="2" fill="#1f2937"><title>2026-05-15: 0</title></rect><rect x="530" y="178" width="10" height="10" rx="2" fill="#1f2937"><title>2026-05-16: 0</title></rect><rect x="543" y="100" width="10" height="10" rx="2" fill="#8468ee"><title>2026-05-17: 5</title></rect><rect x="543" y="113" width="10" height="10" rx="2" fill="#1f2937"><title>2026-05-18: 0</title></rect><rect x="543" y="126" width="10" height="10" rx="2" fill="#a78bfa"><title>2026-05-19: 11</title></rect><rect x="543" y="139" width="10" height="10" rx="2" fill="#3b3170"><title>2026-05-20: 1</title></rect><rect x="543" y="152" width="10" height="10" rx="2" fill="#8468ee"><title>2026-05-21: 9</title></rect><rect x="543" y="165" width="10" height="10" rx="2" fill="#5b4ac4"><title>2026-05-22: 2</title></rect><rect x="543" y="178" width="10" height="10" rx="2" fill="#1f2937"><title>2026-05-23: 0</title></rect><rect x="556" y="100" width="10" height="10" rx="2" fill="#3b3170"><title>2026-05-24: 1</title></rect><rect x="556" y="113" width="10" height="10" rx="2" fill="#8468ee"><title>2026-05-25: 8</title></rect><rect x="556" y="126" width="10" height="10" rx="2" fill="#a78bfa"><title>2026-05-26: 24</title></rect><rect x="556" y="139" width="10" height="10" rx="2" fill="#5b4ac4"><title>2026-05-27: 4</title></rect><rect x="556" y="152" width="10" height="10" rx="2" fill="#8468ee"><title>2026-05-28: 6</title></rect><rect x="556" y="165" width="10" height="10" rx="2" fill="#3b3170"><title>2026-05-29: 1</title></rect><rect x="556" y="178" width="10" height="10" rx="2" fill="#1f2937"><title>2026-05-30: 0</title></rect><rect x="569" y="100" width="10" height="10" rx="2" fill="#a78bfa"><title>2026-05-31: 14</title></rect><rect x="569" y="113" width="10" height="10" rx="2" fill="#a78bfa"><title>2026-06-01: 15</title></rect><rect x="569" y="126" width="10" height="10" rx="2" fill="#a78bfa"><title>2026-06-02: 24</title></rect><rect x="569" y="139" width="10" height="10" rx="2" fill="#1f2937"><title>2026-06-03: 0</title></rect><rect x="569" y="152" width="10" height="10" rx="2" fill="#1f2937"><title>2026-06-04: 0</title></rect><rect x="569" y="165" width="10" height="10" rx="2" fill="#1f2937"><title>2026-06-05: 0</title></rect><rect x="569" y="178" width="10" height="10" rx="2" fill="#1f2937"><title>2026-06-06: 0</title></rect><rect x="582" y="100" width="10" height="10" rx="2" fill="#1f2937"><title>2026-06-07: 0</title></rect><rect x="582" y="113" width="10" height="10" rx="2" fill="#1f2937"><title>2026-06-08: 0</title></rect><rect x="582" y="126" width="10" height="10" rx="2" fill="#8468ee"><title>2026-06-09: 9</title></rect><rect x="582" y="139" width="10" height="10" rx="2" fill="#a78bfa"><title>2026-06-10: 23</title></rect><rect x="582" y="152" width="10" height="10" rx="2" fill="#a78bfa"><title>2026-06-11: 16</title></rect><rect x="582" y="165" width="10" height="10" rx="2" fill="#8468ee"><title>2026-06-12: 8</title></rect><rect x="582" y="178" width="10" height="10" rx="2" fill="#a78bfa"><title>2026-06-13: 16</title></rect><rect x="595" y="100" width="10" height="10" rx="2" fill="#a78bfa"><title>2026-06-14: 11</title></rect><rect x="595" y="113" width="10" height="10" rx="2" fill="#a78bfa"><title>2026-06-15: 888</title></rect><rect x="595" y="126" width="10" height="10" rx="2" fill="#a78bfa"><title>2026-06-16: 684</title></rect><rect x="595" y="139" width="10" height="10" rx="2" fill="#5b4ac4"><title>2026-06-17: 4</title></rect><rect x="595" y="152" width="10" height="10" rx="2" fill="#a78bfa"><title>2026-06-18: 10</title></rect><rect x="595" y="165" width="10" height="10" rx="2" fill="#5b4ac4"><title>2026-06-19: 3</title></rect><rect x="595" y="178" width="10" height="10" rx="2" fill="#a78bfa"><title>2026-06-20: 12</title></rect><rect x="608" y="100" width="10" height="10" rx="2" fill="#a78bfa"><title>2026-06-21: 226</title></rect><rect x="608" y="113" width="10" height="10" rx="2" fill="#a78bfa"><title>2026-06-22: 511</title></rect><rect x="608" y="126" width="10" height="10" rx="2" fill="#a78bfa"><title>2026-06-23: 100</title></rect><rect x="608" y="139" width="10" height="10" rx="2" fill="#a78bfa"><title>2026-06-24: 29</title></rect><rect x="608" y="152" width="10" height="10" rx="2" fill="#a78bfa"><title>2026-06-25: 15</title></rect><rect x="608" y="165" width="10" height="10" rx="2" fill="#5b4ac4"><title>2026-06-26: 2</title></rect><rect x="608" y="178" width="10" height="10" rx="2" fill="#5b4ac4"><title>2026-06-27: 3</title></rect><rect x="621" y="100" width="10" height="10" rx="2" fill="#a78bfa"><title>2026-06-28: 15</title></rect><rect x="621" y="113" width="10" height="10" rx="2" fill="#a78bfa"><title>2026-06-29: 13</title></rect><rect x="621" y="126" width="10" height="10" rx="2" fill="#1f2937"><title>2026-06-30: 0</title></rect><rect x="621" y="139" width="10" height="10" rx="2" fill="#3b3170"><title>2026-07-01: 1</title></rect><rect x="621" y="152" width="10" height="10" rx="2" fill="#a78bfa"><title>2026-07-02: 80</title></rect><rect x="621" y="165" width="10" height="10" rx="2" fill="#3b3170"><title>2026-07-03: 1</title></rect><rect x="621" y="178" width="10" height="10" rx="2" fill="#1f2937"><title>2026-07-04: 0</title></rect><rect x="634" y="100" width="10" height="10" rx="2" fill="#8468ee"><title>2026-07-05: 6</title></rect><rect x="634" y="113" width="10" height="10" rx="2" fill="#5b4ac4"><title>2026-07-06: 4</title></rect><rect x="634" y="126" width="10" height="10" rx="2" fill="#a78bfa"><title>2026-07-07: 12</title></rect><rect x="634" y="139" width="10" height="10" rx="2" fill="#a78bfa"><title>2026-07-08: 101</title></rect><rect x="634" y="152" width="10" height="10" rx="2" fill="#a78bfa"><title>2026-07-09: 42</title></rect><rect x="634" y="165" width="10" height="10" rx="2" fill="#a78bfa"><title>2026-07-10: 18</title></rect><rect x="634" y="178" width="10" height="10" rx="2" fill="#3b3170"><title>2026-07-11: 1</title></rect><rect x="647" y="100" width="10" height="10" rx="2" fill="#5b4ac4"><title>2026-07-12: 3</title></rect><rect x="647" y="113" width="10" height="10" rx="2" fill="#5b4ac4"><title>2026-07-13: 2</title></rect><rect x="647" y="126" width="10" height="10" rx="2" fill="#a78bfa"><title>2026-07-14: 13</title></rect><rect x="647" y="139" width="10" height="10" rx="2" fill="#5b4ac4"><title>2026-07-15: 3</title></rect><rect x="647" y="152" width="10" height="10" rx="2" fill="#5b4ac4"><title>2026-07-16: 3</title></rect><rect x="647" y="165" width="10" height="10" rx="2" fill="#1f2937"><title>2026-07-17: 0</title></rect><rect x="647" y="178" width="10" height="10" rx="2" fill="#1f2937"><title>2026-07-18: 0</title></rect><rect x="660" y="100" width="10" height="10" rx="2" fill="#1f2937"><title>2026-07-19: 0</title></rect><rect x="660" y="113" width="10" height="10" rx="2" fill="#1f2937"><title>2026-07-20: 0</title></rect><rect x="660" y="126" width="10" height="10" rx="2" fill="#8468ee"><title>2026-07-21: 7</title></rect><rect x="660" y="139" width="10" height="10" rx="2" fill="#a78bfa"><title>2026-07-22: 21</title></rect><rect x="660" y="152" width="10" height="10" rx="2" fill="#1f2937"><title>2026-07-23: 0</title></rect><rect x="660" y="165" width="10" height="10" rx="2" fill="#a78bfa"><title>2026-07-24: 152</title></rect><rect x="660" y="178" width="10" height="10" rx="2" fill="#8468ee"><title>2026-07-25: 5</title></rect><rect x="673" y="100" width="10" height="10" rx="2" fill="#8468ee"><title>2026-07-26: 8</title></rect><rect x="673" y="113" width="10" height="10" rx="2" fill="#1f2937"><title>2026-07-27: 0</title></rect><rect x="673" y="126" width="10" height="10" rx="2" fill="#a78bfa"><title>2026-07-28: 29</title></rect><rect x="673" y="139" width="10" height="10" rx="2" fill="#8468ee"><title>2026-07-29: 6</title></rect><rect x="673" y="152" width="10" height="10" rx="2" fill="#3b3170"><title>2026-07-30: 1</title></rect><rect x="673" y="165" width="10" height="10" rx="2" fill="#1f2937"><title>2026-07-31: 0</title></rect><rect x="673" y="178" width="10" height="10" rx="2" fill="#1f2937"><title>2026-08-01: 0</title></rect><rect x="686" y="100" width="10" height="10" rx="2" fill="#1f2937"><title>2026-08-02: 0</title></rect><rect x="686" y="113" width="10" height="10" rx="2" fill="#1f2937"><title>2026-08-03: 0</title></rect><rect x="686" y="126" width="10" height="10" rx="2" fill="#1f2937"><title>2026-08-04: 0</title></rect><rect x="686" y="139" width="10" height="10" rx="2" fill="#1f2937"><title>2026-08-05: 0</title></rect><rect x="686" y="152" width="10" height="10" rx="2" fill="#a78bfa"><title>2026-08-06: 18</title></rect><rect x="686" y="165" width="10" height="10" rx="2" fill="#a78bfa"><title>2026-08-07: 61</title></rect><rect x="686" y="178" width="10" height="10" rx="2" fill="#1f2937"><title>2026-08-08: 0</title></rect><rect x="699" y="100" width="10" height="10" rx="2" fill="#a78bfa"><title>2026-08-09: 39</title></rect><rect x="699" y="113" width="10" height="10" rx="2" fill="#8468ee"><title>2026-08-10: 8</title></rect><rect x="699" y="126" width="10" height="10" rx="2" fill="#a78bfa"><title>2026-08-11: 21</title></rect><rect x="699" y="139" width="10" height="10" rx="2" fill="#1f2937"><title>2026-08-12: 0</title></rect><rect x="699" y="152" width="10" height="10" rx="2" fill="#8468ee"><title>2026-08-13: 5</title></rect><rect x="699" y="165" width="10" height="10" rx="2" fill="#a78bfa"><title>2026-08-14: 50</title></rect><rect x="699" y="178" width="10" height="10" rx="2" fill="#a78bfa"><title>2026-08-15: 111</title></rect><rect x="712" y="100" width="10" height="10" rx="2" fill="#a78bfa"><title>2026-08-16: 31</title></rect><rect x="712" y="113" width="10" height="10" rx="2" fill="#a78bfa"><title>2026-08-17: 10</title></rect><rect x="712" y="126" width="10" height="10" rx="2" fill="#a78bfa"><title>2026-08-18: 51</title></rect><rect x="712" y="139" width="10" height="10" rx="2" fill="#a78bfa"><title>2026-08-19: 148</title></rect><rect x="712" y="152" width="10" height="10" rx="2" fill="#a78bfa"><title>2026-08-20: 196</title></rect><rect x="712" y="165" width="10" height="10" rx="2" fill="#a78bfa"><title>2026-08-21: 249</title></rect><rect x="712" y="178" width="10" height="10" rx="2" fill="#a78bfa"><title>2026-08-22: 83</title></rect><rect x="725" y="100" width="10" height="10" rx="2" fill="#a78bfa"><title>2026-08-23: 46</title></rect><rect x="725" y="113" width="10" height="10" rx="2" fill="#a78bfa"><title>2026-08-24: 199</title></rect><rect x="725" y="126" width="10" height="10" rx="2" fill="#a78bfa"><title>2026-08-25: 220</title></rect><rect x="725" y="139" width="10" height="10" rx="2" fill="#a78bfa"><title>2026-08-26: 150</title></rect><rect x="725" y="152" width="10" height="10" rx="2" fill="#a78bfa"><title>2026-08-27: 245</title></rect><rect x="725" y="165" width="10" height="10" rx="2" fill="#a78bfa"><title>2026-08-28: 317</title></rect><rect x="725" y="178" width="10" height="10" rx="2" fill="#a78bfa"><title>2026-08-29: 144</title></rect><rect x="738" y="100" width="10" height="10" rx="2" fill="#a78bfa"><title>2026-08-30: 207</title></rect><rect x="738" y="113" width="10" height="10" rx="2" fill="#a78bfa"><title>2026-08-31: 80</title></rect><rect x="738" y="126" width="10" height="10" rx="2" fill="#a78bfa"><title>2026-09-01: 1141</title></rect><rect x="738" y="139" width="10" height="10" rx="2" fill="#a78bfa"><title>2026-09-02: 329</title></rect><rect x="738" y="152" width="10" height="10" rx="2" fill="#a78bfa"><title>2026-09-03: 195</title></rect><rect x="738" y="165" width="10" height="10" rx="2" fill="#a78bfa"><title>2026-09-04: 245</title></rect><rect x="738" y="178" width="10" height="10" rx="2" fill="#a78bfa"><title>2026-09-05: 41</title></rect><text x="62" y="212" class="tiny">Less</text><rect x="92" y="203" width="10" height="10" rx="2" fill="#1f2937"/><rect x="105" y="203" width="10" height="10" rx="2" fill="#3b3170"/><rect x="118" y="203" width="10" height="10" rx="2" fill="#5b4ac4"/><rect x="131" y="203" width="10" height="10" rx="2" fill="#8468ee"/><rect x="144" y="203" width="10" height="10" rx="2" fill="#a78bfa"/><text x="159" y="212" class="tiny">More</text><text x="792" y="212" text-anchor="end" class="small">auto-generated · 2026-09-05 20:24 UTC</text></svg>
