<svg xmlns="http://www.w3.org/2000/svg" width="820" height="412" viewBox="0 0 820 412" role="img">
<defs>
  <filter id="shadow" x="-10%" y="-10%" width="120%" height="120%">
    <feDropShadow dx="0" dy="8" stdDeviation="10" flood-color="#94a3b8" flood-opacity="0.16"/>
  </filter>
  <style>
    .title { font: 700 20px -apple-system,BlinkMacSystemFont,"Segoe UI",sans-serif; fill: #182235; }
    .subtitle { font: 500 12px -apple-system,BlinkMacSystemFont,"Segoe UI",sans-serif; fill: #64748b; }
    .label { font: 600 11px -apple-system,BlinkMacSystemFont,"Segoe UI",sans-serif; fill: #64748b; text-transform: uppercase; letter-spacing: .06em; }
    .value { font: 700 17px ui-monospace,SFMono-Regular,Menlo,monospace; fill: #182235; }
    .small { font: 500 11px -apple-system,BlinkMacSystemFont,"Segoe UI",sans-serif; fill: #64748b; }
    .tiny { font: 500 10px -apple-system,BlinkMacSystemFont,"Segoe UI",sans-serif; fill: #64748b; }
    .mono { font: 650 12px ui-monospace,SFMono-Regular,Menlo,monospace; fill: #182235; }
  </style>
</defs><rect x="1" y="1" width="818" height="410" rx="12" fill="#ffffff" stroke="#dbe3ef" filter="url(#shadow)"/><title>Momentum: public contributions over two consecutive 30-day periods</title><desc>Completed UTC days only. Weekly points are Monday to Sunday, clipped to the displayed 60-day range. Missing data is not zero.</desc><text x="28" y="44" class="title">Momentum</text><text x="28" y="68" class="subtitle">Public contributions | Completed UTC days; today excluded</text><text x="28" y="104" class="label">Last 30 days</text><text x="28" y="128" class="value">2,005</text><text x="28" y="151" class="small">2026-08-16 to 2026-09-14</text><text x="292" y="104" class="label">Previous 30 days</text><text x="292" y="128" class="value">283</text><text x="292" y="151" class="small">2026-07-17 to 2026-08-15</text><text x="568" y="104" class="label">Active days</text><text x="568" y="128" class="value">27 / 30</text><text x="568" y="151" class="small">Last 30 days; at least 1 contribution</text><text x="28" y="184" class="mono">Change: +1,722 (+608.5%)</text><text x="28" y="220" class="label">Weekly contributions</text><text x="792" y="220" text-anchor="end" class="small">2026-07-17 to 2026-09-14 UTC</text><text x="46.00" y="340" class="tiny">07-17*</text><circle cx="64.00" cy="318.00" r="3" fill="#6d5dfc"><title>2026-07-17 to 2026-07-19: 0 public contributions (3 days; partial week)</title></circle><text x="46.00" y="308.00" class="tiny">0</text><text x="122.89" y="340" class="tiny">07-20</text><circle cx="140.89" cy="309.67" r="3" fill="#6d5dfc"><title>2026-07-20 to 2026-07-26: 100 public contributions (7 days)</title></circle><text x="122.89" y="299.67" class="tiny">100</text><text x="199.78" y="340" class="tiny">07-27</text><circle cx="217.78" cy="316.75" r="3" fill="#6d5dfc"><title>2026-07-27 to 2026-08-02: 15 public contributions (7 days)</title></circle><text x="199.78" y="306.75" class="tiny">15</text><text x="276.67" y="340" class="tiny">08-03</text><circle cx="294.67" cy="308.50" r="3" fill="#6d5dfc"><title>2026-08-03 to 2026-08-09: 114 public contributions (7 days)</title></circle><text x="276.67" y="298.50" class="tiny">114</text><text x="353.56" y="340" class="tiny">08-10</text><circle cx="371.56" cy="313.50" r="3" fill="#6d5dfc"><title>2026-08-10 to 2026-08-16: 54 public contributions (7 days)</title></circle><text x="353.56" y="303.50" class="tiny">54</text><text x="430.44" y="340" class="tiny">08-17</text><circle cx="448.44" cy="277.08" r="3" fill="#6d5dfc"><title>2026-08-17 to 2026-08-23: 491 public contributions (7 days)</title></circle><text x="430.44" y="267.08" class="tiny">491</text><text x="507.33" y="340" class="tiny">08-24</text><circle cx="525.33" cy="259.00" r="3" fill="#6d5dfc"><title>2026-08-24 to 2026-08-30: 708 public contributions (7 days)</title></circle><text x="507.33" y="249.00" class="tiny">708</text><text x="584.22" y="340" class="tiny">08-31</text><circle cx="602.22" cy="258.00" r="3" fill="#6d5dfc"><title>2026-08-31 to 2026-09-06: 720 public contributions (7 days)</title></circle><text x="584.22" y="248.00" class="tiny">720</text><text x="661.11" y="340" class="tiny">09-07</text><circle cx="679.11" cy="311.00" r="3" fill="#6d5dfc"><title>2026-09-07 to 2026-09-13: 84 public contributions (7 days)</title></circle><text x="661.11" y="301.00" class="tiny">84</text><text x="738.00" y="340" class="tiny">09-14*</text><circle cx="756.00" cy="317.83" r="3" fill="#6d5dfc"><title>2026-09-14 to 2026-09-14: 2 public contributions (1 days; partial week)</title></circle><text x="738.00" y="307.83" class="tiny">2</text><polyline points="64.00,318.00 140.89,309.67 217.78,316.75 294.67,308.50 371.56,313.50 448.44,277.08 525.33,259.00 602.22,258.00 679.11,311.00 756.00,317.83" fill="none" stroke="#6d5dfc" stroke-width="2" stroke-linejoin="round"/><text x="28" y="366" class="small">Mon-Sun totals; labels are week starts. * Partial boundary week, not extrapolated.</text><text x="792" y="396" text-anchor="end" class="small">auto-generated · 2026-09-15 21:23 UTC</text></svg>
