<svg xmlns="http://www.w3.org/2000/svg" width="820" height="412" viewBox="0 0 820 412" role="img">
<defs>
  <filter id="shadow" x="-10%" y="-10%" width="120%" height="120%">
    <feDropShadow dx="0" dy="8" stdDeviation="10" flood-color="#94a3b8" flood-opacity="0.16"/>
  </filter>
  <style>
    .title { font: 700 20px -apple-system,BlinkMacSystemFont,"Segoe UI",sans-serif; fill: #182235; }
    .subtitle { font: 500 12px -apple-system,BlinkMacSystemFont,"Segoe UI",sans-serif; fill: #64748b; }
    .label { font: 600 11px -apple-system,BlinkMacSystemFont,"Segoe UI",sans-serif; fill: #64748b; text-transform: uppercase; letter-spacing: .06em; }
    .value { font: 700 17px ui-monospace,SFMono-Regular,Menlo,monospace; fill: #182235; }
    .small { font: 500 11px -apple-system,BlinkMacSystemFont,"Segoe UI",sans-serif; fill: #64748b; }
    .tiny { font: 500 10px -apple-system,BlinkMacSystemFont,"Segoe UI",sans-serif; fill: #64748b; }
    .mono { font: 650 12px ui-monospace,SFMono-Regular,Menlo,monospace; fill: #182235; }
  </style>
</defs><rect x="1" y="1" width="818" height="410" rx="12" fill="#ffffff" stroke="#dbe3ef" filter="url(#shadow)"/><title>Momentum: public contributions over two consecutive 30-day periods</title><desc>Completed UTC days only. Weekly points are Monday to Sunday, clipped to the displayed 60-day range. Missing data is not zero.</desc><text x="28" y="44" class="title">Momentum</text><text x="28" y="68" class="subtitle">Public contributions | Completed UTC days; today excluded</text><text x="28" y="104" class="label">Last 30 days</text><text x="28" y="128" class="value">1,225</text><text x="28" y="151" class="small">2026-09-03 to 2026-10-02</text><text x="292" y="104" class="label">Previous 30 days</text><text x="292" y="128" class="value">1,846</text><text x="292" y="151" class="small">2026-08-04 to 2026-09-02</text><text x="568" y="104" class="label">Active days</text><text x="568" y="128" class="value">25 / 30</text><text x="568" y="151" class="small">Last 30 days; at least 1 contribution</text><text x="28" y="184" class="mono">Change: -621 (-33.6%)</text><text x="28" y="220" class="label">Weekly contributions</text><text x="792" y="220" text-anchor="end" class="small">2026-08-04 to 2026-10-02 UTC</text><text x="46.00" y="340" class="tiny">08-04*</text><circle cx="64.00" cy="308.69" r="3" fill="#6d5dfc"><title>2026-08-04 to 2026-08-09: 114 public contributions (6 days; partial week)</title></circle><text x="46.00" y="298.69" class="tiny">114</text><text x="132.50" y="340" class="tiny">08-10</text><circle cx="150.50" cy="313.59" r="3" fill="#6d5dfc"><title>2026-08-10 to 2026-08-16: 54 public contributions (7 days)</title></circle><text x="132.50" y="303.59" class="tiny">54</text><text x="219.00" y="340" class="tiny">08-17</text><circle cx="237.00" cy="277.92" r="3" fill="#6d5dfc"><title>2026-08-17 to 2026-08-23: 491 public contributions (7 days)</title></circle><text x="219.00" y="267.92" class="tiny">491</text><text x="305.50" y="340" class="tiny">08-24</text><circle cx="323.50" cy="258.00" r="3" fill="#6d5dfc"><title>2026-08-24 to 2026-08-30: 735 public contributions (7 days)</title></circle><text x="305.50" y="248.00" class="tiny">735</text><text x="392.00" y="340" class="tiny">08-31</text><circle cx="410.00" cy="259.06" r="3" fill="#6d5dfc"><title>2026-08-31 to 2026-09-06: 722 public contributions (7 days)</title></circle><text x="392.00" y="249.06" class="tiny">722</text><text x="478.50" y="340" class="tiny">09-07</text><circle cx="496.50" cy="311.06" r="3" fill="#6d5dfc"><title>2026-09-07 to 2026-09-13: 85 public contributions (7 days)</title></circle><text x="478.50" y="301.06" class="tiny">85</text><text x="565.00" y="340" class="tiny">09-14</text><circle cx="583.00" cy="282.57" r="3" fill="#6d5dfc"><title>2026-09-14 to 2026-09-20: 434 public contributions (7 days)</title></circle><text x="565.00" y="272.57" class="tiny">434</text><text x="651.50" y="340" class="tiny">09-21</text><circle cx="669.50" cy="282.73" r="3" fill="#6d5dfc"><title>2026-09-21 to 2026-09-27: 432 public contributions (7 days)</title></circle><text x="651.50" y="272.73" class="tiny">432</text><text x="738.00" y="340" class="tiny">09-28*</text><circle cx="756.00" cy="317.67" r="3" fill="#6d5dfc"><title>2026-09-28 to 2026-10-02: 4 public contributions (5 days; partial week)</title></circle><text x="738.00" y="307.67" class="tiny">4</text><polyline points="64.00,308.69 150.50,313.59 237.00,277.92 323.50,258.00 410.00,259.06 496.50,311.06 583.00,282.57 669.50,282.73 756.00,317.67" fill="none" stroke="#6d5dfc" stroke-width="2" stroke-linejoin="round"/><text x="28" y="366" class="small">Mon-Sun totals; labels are week starts. * Partial boundary week, not extrapolated.</text><text x="792" y="396" text-anchor="end" class="small">auto-generated · 2026-10-03 21:20 UTC</text></svg>
